<?xml version="1.0" encoding="UTF-8"?>
<!DOCTYPE svg PUBLIC "-//W3C//DTD SVG 1.1//EN" "http://www.w3.org/Graphics/SVG/1.1/DTD/svg11.dtd">
<svg xmlns="http://www.w3.org/2000/svg" version="1.1" width="500px" height="500px" style="shape-rendering:geometricPrecision; text-rendering:geometricPrecision; image-rendering:optimizeQuality; fill-rule:evenodd; clip-rule:evenodd" xmlns:xlink="http://www.w3.org/1999/xlink">
<g><path style="opacity:1" fill="#212025" d="M 226.5,168.5 C 219.5,168.5 212.5,168.5 205.5,168.5C 204.833,168.167 204.167,167.833 203.5,167.5C 189.5,152.833 175.167,138.5 160.5,124.5C 157.209,119.209 152.876,114.876 147.5,111.5C 146.522,111.977 145.689,112.643 145,113.5C 144.601,113.272 144.435,112.938 144.5,112.5C 144.953,111.542 145.619,110.708 146.5,110C 135.262,98.8844 124.262,87.5511 113.5,76C 129.833,75.3333 146.167,75.3333 162.5,76C 187.71,101.51 213.21,126.676 239,151.5C 239.982,152.759 240.315,154.092 240,155.5C 235.631,160.037 231.131,164.37 226.5,168.5 Z"/></g>
<g><path style="opacity:1" fill="#222025" d="M 342.5,75.5 C 356.849,75.1674 371.182,75.5007 385.5,76.5C 375.181,87.3193 364.681,97.9859 354,108.5C 353.517,109.448 353.351,110.448 353.5,111.5C 352.448,111.351 351.448,111.517 350.5,112C 346.23,115.761 342.563,119.928 339.5,124.5C 324.14,137.86 309.806,152.194 296.5,167.5C 295.508,167.328 294.842,167.662 294.5,168.5C 287.167,168.5 279.833,168.5 272.5,168.5C 267.452,164.454 263.119,159.787 259.5,154.5C 265.513,146.487 272.513,139.487 280.5,133.5C 300.452,114.041 319.452,95.2074 337.5,77C 339.382,76.8019 341.048,76.3019 342.5,75.5 Z"/></g>
<g><path style="opacity:0.831" fill="#151317" d="M 342.5,75.5 C 341.048,76.3019 339.382,76.8019 337.5,77C 319.452,95.2074 300.452,114.041 280.5,133.5C 298.58,113.918 317.246,94.7515 336.5,76C 338.473,75.5045 340.473,75.3379 342.5,75.5 Z"/></g>
<g><path style="opacity:1" fill="#201f24" d="M 138.5,118.5 C 138.351,119.552 138.517,120.552 139,121.5C 142.296,124.96 145.796,128.294 149.5,131.5C 150.736,132.246 152.07,132.579 153.5,132.5C 148.537,139.131 142.87,145.131 136.5,150.5C 136.511,148.983 137.177,147.816 138.5,147C 134.604,141.602 129.937,137.102 124.5,133.5C 110.706,119.538 97.039,105.371 83.5,91C 86.6531,87.1779 89.8198,83.3446 93,79.5C 93.8373,77.9926 95.0039,77.4926 96.5,78C 110.086,92.0886 124.086,105.589 138.5,118.5 Z"/></g>
<g><path style="opacity:1" fill="#201f24" d="M 375.5,133.5 C 373.745,134.072 372.078,134.906 370.5,136C 366.602,139.729 362.935,143.562 359.5,147.5C 355.036,143.537 350.702,139.37 346.5,135C 347.056,134.617 347.389,134.117 347.5,133.5C 353.192,128.832 357.859,123.832 361.5,118.5C 375.941,105.561 389.941,92.061 403.5,78C 407.807,81.2907 411.973,85.124 416,89.5C 416.667,90.1667 416.667,90.8333 416,91.5C 401.911,105.086 388.411,119.086 375.5,133.5 Z"/></g>
<g><path style="opacity:0.515" fill="#232532" d="M 414.5,155.5 C 414.667,140.163 414.5,124.83 414,109.5C 413.184,110.823 412.017,111.489 410.5,111.5C 411.479,109.855 412.812,108.521 414.5,107.5C 415.827,123.662 415.827,139.662 414.5,155.5 Z"/></g>
<g><path style="opacity:1" fill="#3e4350" d="M 160.5,124.5 C 158.167,127.167 155.833,129.833 153.5,132.5C 152.07,132.579 150.736,132.246 149.5,131.5C 145.796,128.294 142.296,124.96 139,121.5C 138.517,120.552 138.351,119.552 138.5,118.5C 140.167,116.167 142.167,114.167 144.5,112.5C 144.435,112.938 144.601,113.272 145,113.5C 145.689,112.643 146.522,111.977 147.5,111.5C 152.876,114.876 157.209,119.209 160.5,124.5 Z"/></g>
<g><path style="opacity:1" fill="#6a7180" d="M 117.5,139.5 C 122.479,143.812 127.146,148.479 131.5,153.5C 115.848,154.499 100.181,154.833 84.5,154.5C 83.1734,138.662 83.1734,122.662 84.5,106.5C 95.8543,117.188 106.854,128.188 117.5,139.5 Z"/></g>
<g><path style="opacity:1" fill="#3c424f" d="M 414.5,155.5 C 398.167,155.5 381.833,155.5 365.5,155.5C 365.5,155.167 365.5,154.833 365.5,154.5C 371.469,150.199 376.802,145.199 381.5,139.5C 391.167,130.167 400.833,120.833 410.5,111.5C 412.017,111.489 413.184,110.823 414,109.5C 414.5,124.83 414.667,140.163 414.5,155.5 Z"/></g>
<g><path style="opacity:1" fill="#6a6f7e" d="M 353.5,111.5 C 356.784,113.117 359.451,115.45 361.5,118.5C 357.859,123.832 353.192,128.832 347.5,133.5C 344.119,131.12 341.453,128.12 339.5,124.5C 342.563,119.928 346.23,115.761 350.5,112C 351.448,111.517 352.448,111.351 353.5,111.5 Z"/></g>
<g><path style="opacity:1" fill="#6a707e" d="M 375.5,133.5 C 377.833,135.167 379.833,137.167 381.5,139.5C 376.802,145.199 371.469,150.199 365.5,154.5C 363.5,152.167 361.5,149.833 359.5,147.5C 362.935,143.562 366.602,139.729 370.5,136C 372.078,134.906 373.745,134.072 375.5,133.5 Z"/></g>
<g><path style="opacity:1" fill="#404653" d="M 124.5,133.5 C 129.937,137.102 134.604,141.602 138.5,147C 137.177,147.816 136.511,148.983 136.5,150.5C 135.752,152.332 134.752,153.999 133.5,155.5C 117.167,155.5 100.833,155.5 84.5,155.5C 84.5,155.167 84.5,154.833 84.5,154.5C 100.181,154.833 115.848,154.499 131.5,153.5C 127.146,148.479 122.479,143.812 117.5,139.5C 119.833,137.5 122.167,135.5 124.5,133.5 Z"/></g>
<g><path style="opacity:1" fill="#212025" d="M 84.5,155.5 C 100.833,155.5 117.167,155.5 133.5,155.5C 147.113,168.779 160.78,182.112 174.5,195.5C 174.187,208.246 174.52,220.913 175.5,233.5C 173.818,236.015 171.652,238.015 169,239.5C 140.42,212.087 112.253,184.087 84.5,155.5 Z"/></g>
<g><path style="opacity:1" fill="#222025" d="M 365.5,155.5 C 381.833,155.5 398.167,155.5 414.5,155.5C 387.704,183.797 360.37,211.63 332.5,239C 331.5,239.667 330.5,239.667 329.5,239C 326.977,237.64 324.977,235.807 323.5,233.5C 324.167,220.833 324.833,208.167 325.5,195.5C 339.14,182.527 352.473,169.194 365.5,155.5 Z"/></g>
<g><path style="opacity:1" fill="#eaeaea" d="M 296.5,167.5 C 306.208,167.686 315.541,168.686 324.5,170.5C 312.194,183.473 299.527,196.14 286.5,208.5C 285.833,208.5 285.5,208.167 285.5,207.5C 285.804,206.85 286.137,206.183 286.5,205.5C 282.699,203.648 280.199,200.648 279,196.5C 278.333,197.833 277.667,197.833 277,196.5C 276.667,194.167 276.333,191.833 276,189.5C 275.047,191.373 273.88,191.706 272.5,190.5C 272.833,189.833 273.167,189.167 273.5,188.5C 274.117,188.389 274.617,188.056 275,187.5C 275.575,181.478 275.409,175.478 274.5,169.5C 281.354,169.824 288.021,169.491 294.5,168.5C 294.842,167.662 295.508,167.328 296.5,167.5 Z"/></g>
<g><path style="opacity:1" fill="#222126" d="M 265.5,178.5 C 268.57,181.564 271.237,184.897 273.5,188.5C 273.167,189.167 272.833,189.833 272.5,190.5C 270.167,192.5 267.833,194.5 265.5,196.5C 261.475,199.558 258.142,203.225 255.5,207.5C 253.5,209.167 251.5,210.833 249.5,212.5C 242.276,204.032 234.61,196.032 226.5,188.5C 228.833,185.167 231.167,181.833 233.5,178.5C 238.759,173.416 244.259,168.416 250,163.5C 255.035,168.703 260.202,173.703 265.5,178.5 Z"/></g>
<g><path style="opacity:1" fill="#5c606c" d="M 205.5,168.5 C 212.5,168.5 219.5,168.5 226.5,168.5C 228.833,171.833 231.167,175.167 233.5,178.5C 231.167,181.833 228.833,185.167 226.5,188.5C 225.883,188.389 225.383,188.056 225,187.5C 224.212,181.78 224.379,176.114 225.5,170.5C 218.679,169.833 212.012,169.167 205.5,168.5 Z"/></g>
<g><path style="opacity:1" fill="#626570" d="M 272.5,168.5 C 279.833,168.5 287.167,168.5 294.5,168.5C 288.021,169.491 281.354,169.824 274.5,169.5C 275.409,175.478 275.575,181.478 275,187.5C 274.617,188.056 274.117,188.389 273.5,188.5C 271.237,184.897 268.57,181.564 265.5,178.5C 267.859,175.149 270.192,171.815 272.5,168.5 Z"/></g>
<g><path style="opacity:1" fill="#555c6b" d="M 174.5,173.5 C 175.055,180.473 176.055,187.473 177.5,194.5C 180.421,194.146 182.754,195.146 184.5,197.5C 184.291,198.086 183.957,198.586 183.5,199C 186.047,200.316 186.713,202.149 185.5,204.5C 187.458,206.269 189.458,206.935 191.5,206.5C 190.5,207.333 189.5,208.167 188.5,209C 189.5,209.833 190.5,210.667 191.5,211.5C 189.252,212.324 189.086,213.324 191,214.5C 191.718,213.549 192.551,213.383 193.5,214C 196.694,216.772 199.694,219.772 202.5,223C 204.883,223.065 205.55,223.898 204.5,225.5C 204.977,226.931 205.643,228.264 206.5,229.5C 207.451,228.674 208.451,228.508 209.5,229C 211.135,230.748 213.135,231.915 215.5,232.5C 216.782,234.179 217.782,236.013 218.5,238C 220.804,238.895 223.138,239.729 225.5,240.5C 223.797,241.568 222.13,243.402 220.5,246C 219.5,246.333 218.5,246.667 217.5,247C 220.658,247.116 223.658,247.949 226.5,249.5C 223.5,249.5 220.5,249.5 217.5,249.5C 211.3,242.723 204.633,236.389 197.5,230.5C 197.175,228.868 196.175,227.868 194.5,227.5C 190.191,225.963 185.858,225.63 181.5,226.5C 180.252,228.459 178.585,229.959 176.5,231C 182.606,232.001 188.606,232.501 194.5,232.5C 194.167,233.5 193.5,234.167 192.5,234.5C 186.87,233.708 181.203,233.375 175.5,233.5C 174.52,220.913 174.187,208.246 174.5,195.5C 174.5,188.167 174.5,180.833 174.5,173.5 Z"/></g>
<g><path style="opacity:1" fill="#d9d9d9" d="M 285.5,207.5 C 283.849,210.423 281.516,212.757 278.5,214.5C 275.655,210.795 272.822,207.128 270,203.5C 268.786,201.951 267.286,200.785 265.5,200C 266.171,199.014 266.171,197.847 265.5,196.5C 267.833,194.5 270.167,192.5 272.5,190.5C 273.88,191.706 275.047,191.373 276,189.5C 276.333,191.833 276.667,194.167 277,196.5C 277.667,197.833 278.333,197.833 279,196.5C 280.199,200.648 282.699,203.648 286.5,205.5C 286.137,206.183 285.804,206.85 285.5,207.5 Z"/></g>
<g><path style="opacity:1" fill="#eaeaeb" d="M 203.5,167.5 C 204.167,167.833 204.833,168.167 205.5,168.5C 212.012,169.167 218.679,169.833 225.5,170.5C 224.379,176.114 224.212,181.78 225,187.5C 225.383,188.056 225.883,188.389 226.5,188.5C 234.61,196.032 242.276,204.032 249.5,212.5C 249.5,223.833 249.5,235.167 249.5,246.5C 247.5,244.833 245.5,243.167 243.5,241.5C 220.523,217.855 197.857,193.855 175.5,169.5C 184.672,168.655 194.005,167.988 203.5,167.5 Z"/></g>
<g><path style="opacity:1" fill="#68707e" d="M 324.5,170.5 C 325.402,178.875 325.735,187.208 325.5,195.5C 324.833,208.167 324.167,220.833 323.5,233.5C 320.579,232.628 317.579,232.628 314.5,233.5C 316.658,231.78 319.325,230.947 322.5,231C 318.051,225.085 312.384,223.751 305.5,227C 303.676,227.66 302.343,228.827 301.5,230.5C 294.86,236.473 288.527,242.806 282.5,249.5C 272.168,249.125 261.835,248.792 251.5,248.5C 251.5,247.833 251.167,247.5 250.5,247.5C 257.714,240.105 264.714,232.439 271.5,224.5C 277.227,219.776 282.227,214.442 286.5,208.5C 299.527,196.14 312.194,183.473 324.5,170.5 Z"/></g>
<g><path style="opacity:1" fill="#c9c9cb" d="M 265.5,196.5 C 266.171,197.847 266.171,199.014 265.5,200C 267.286,200.785 268.786,201.951 270,203.5C 272.822,207.128 275.655,210.795 278.5,214.5C 281.516,212.757 283.849,210.423 285.5,207.5C 285.5,208.167 285.833,208.5 286.5,208.5C 282.227,214.442 277.227,219.776 271.5,224.5C 270.504,224.414 269.671,224.748 269,225.5C 266.416,222.684 263.916,219.684 261.5,216.5C 260.675,215.614 259.675,215.281 258.5,215.5C 258.66,213.801 258.494,212.134 258,210.5C 256.583,209.922 255.75,208.922 255.5,207.5C 258.142,203.225 261.475,199.558 265.5,196.5 Z"/></g>
<g><path style="opacity:1" fill="#b0b0b2" d="M 255.5,207.5 C 255.75,208.922 256.583,209.922 258,210.5C 258.494,212.134 258.66,213.801 258.5,215.5C 259.675,215.281 260.675,215.614 261.5,216.5C 263.916,219.684 266.416,222.684 269,225.5C 269.671,224.748 270.504,224.414 271.5,224.5C 264.714,232.439 257.714,240.105 250.5,247.5C 249.833,247.5 249.5,247.167 249.5,246.5C 249.5,235.167 249.5,223.833 249.5,212.5C 251.5,210.833 253.5,209.167 255.5,207.5 Z"/></g>
<g><path style="opacity:1" fill="#353a47" d="M 314.5,233.5 C 312.05,233.298 309.717,233.631 307.5,234.5C 305.754,232.748 303.754,231.415 301.5,230.5C 302.343,228.827 303.676,227.66 305.5,227C 312.384,223.751 318.051,225.085 322.5,231C 319.325,230.947 316.658,231.78 314.5,233.5 Z"/></g>
<g><path style="opacity:1" fill="#343948" d="M 197.5,230.5 C 196.5,231.167 195.5,231.833 194.5,232.5C 188.606,232.501 182.606,232.001 176.5,231C 178.585,229.959 180.252,228.459 181.5,226.5C 185.858,225.63 190.191,225.963 194.5,227.5C 196.175,227.868 197.175,228.868 197.5,230.5 Z"/></g>
<g><path style="opacity:1" fill="#5d6574" d="M 175.5,169.5 C 197.857,193.855 220.523,217.855 243.5,241.5C 243.877,243.258 244.544,244.925 245.5,246.5C 244.398,247.176 243.398,247.842 242.5,248.5C 237.138,248.472 231.805,248.806 226.5,249.5C 223.658,247.949 220.658,247.116 217.5,247C 218.5,246.667 219.5,246.333 220.5,246C 222.13,243.402 223.797,241.568 225.5,240.5C 223.138,239.729 220.804,238.895 218.5,238C 217.782,236.013 216.782,234.179 215.5,232.5C 213.135,231.915 211.135,230.748 209.5,229C 208.451,228.508 207.451,228.674 206.5,229.5C 205.643,228.264 204.977,226.931 204.5,225.5C 205.55,223.898 204.883,223.065 202.5,223C 199.694,219.772 196.694,216.772 193.5,214C 192.551,213.383 191.718,213.549 191,214.5C 189.086,213.324 189.252,212.324 191.5,211.5C 190.5,210.667 189.5,209.833 188.5,209C 189.5,208.167 190.5,207.333 191.5,206.5C 189.458,206.935 187.458,206.269 185.5,204.5C 186.713,202.149 186.047,200.316 183.5,199C 183.957,198.586 184.291,198.086 184.5,197.5C 182.754,195.146 180.421,194.146 177.5,194.5C 176.055,187.473 175.055,180.473 174.5,173.5C 174.232,171.901 174.566,170.568 175.5,169.5 Z"/></g>
<g><path style="opacity:1" fill="#212025" d="M 197.5,230.5 C 204.633,236.389 211.3,242.723 217.5,249.5C 211.167,256.5 204.5,263.167 197.5,269.5C 196.5,267.833 195.167,266.5 193.5,265.5C 188.562,261.064 183.729,256.397 179,251.5C 178.833,250.833 178.667,250.167 178.5,249.5C 182.481,243.853 187.148,238.853 192.5,234.5C 193.5,234.167 194.167,233.5 194.5,232.5C 195.5,231.833 196.5,231.167 197.5,230.5 Z"/></g>
<g><path style="opacity:1" fill="#212025" d="M 301.5,230.5 C 303.754,231.415 305.754,232.748 307.5,234.5C 312.823,238.825 317.489,243.825 321.5,249.5C 317.02,255.813 311.687,261.313 305.5,266C 306.793,266.49 308.127,266.657 309.5,266.5C 307.343,267.407 305.01,268.073 302.5,268.5C 296.23,263.242 289.897,257.909 283.5,252.5C 282.614,251.675 282.281,250.675 282.5,249.5C 288.527,242.806 294.86,236.473 301.5,230.5 Z"/></g>
<g><path style="opacity:1" fill="#ebebec" d="M 242.5,248.5 C 244.527,248.338 246.527,248.505 248.5,249C 223.932,275.396 199.599,301.896 175.5,328.5C 174.508,321.018 174.175,313.352 174.5,305.5C 175.495,292.677 175.829,279.677 175.5,266.5C 177.67,267.838 179.336,269.672 180.5,272C 185.864,272.829 191.198,272.663 196.5,271.5C 196.863,270.817 197.196,270.15 197.5,269.5C 204.5,263.167 211.167,256.5 217.5,249.5C 220.5,249.5 223.5,249.5 226.5,249.5C 231.805,248.806 237.138,248.472 242.5,248.5 Z"/></g>
<g><path style="opacity:1" fill="#212025" d="M 415.5,344.5 C 399.5,344.5 383.5,344.5 367.5,344.5C 366.145,346.521 364.479,348.188 362.5,349.5C 363.716,347.52 364.549,345.52 365,343.5C 351.632,329.965 338.132,316.631 324.5,303.5C 324.667,291.162 324.5,278.829 324,266.5C 323.617,267.056 323.117,267.389 322.5,267.5C 322.5,266.833 322.167,266.5 321.5,266.5C 324.535,264.983 327.201,262.817 329.5,260C 330.549,259.508 331.549,259.674 332.5,260.5C 360.188,288.521 387.854,316.521 415.5,344.5 Z"/></g>
<g><path style="opacity:1" fill="#545967" d="M 174.5,264.5 C 180.744,265.458 187.077,265.791 193.5,265.5C 195.167,266.5 196.5,267.833 197.5,269.5C 197.196,270.15 196.863,270.817 196.5,271.5C 191.198,272.663 185.864,272.829 180.5,272C 179.336,269.672 177.67,267.838 175.5,266.5C 175.167,266.5 174.833,266.5 174.5,266.5C 174.5,265.833 174.5,265.167 174.5,264.5 Z"/></g>
<g><path style="opacity:1" fill="#212025" d="M 174.5,264.5 C 174.5,265.167 174.5,265.833 174.5,266.5C 174.813,279.246 174.48,291.913 173.5,304.5C 159.86,317.473 146.527,330.806 133.5,344.5C 116.833,344.5 100.167,344.5 83.5,344.5C 111.326,316.174 139.326,288.008 167.5,260C 170.668,259.968 173.001,261.468 174.5,264.5 Z"/></g>
<g><path style="opacity:1" fill="#343847" d="M 251.5,248.5 C 261.835,248.792 272.168,249.125 282.5,249.5C 282.281,250.675 282.614,251.675 283.5,252.5C 289.897,257.909 296.23,263.242 302.5,268.5C 302.414,269.496 302.748,270.329 303.5,271C 308.5,271.779 313.5,272.112 318.5,272C 319.733,270.333 321.067,268.833 322.5,267.5C 323.117,267.389 323.617,267.056 324,266.5C 324.5,278.829 324.667,291.162 324.5,303.5C 324.5,312.167 324.5,320.833 324.5,329.5C 314.5,329.5 304.5,329.5 294.5,329.5C 303.675,328.833 313.009,328.167 322.5,327.5C 315.394,318.948 308.061,310.614 300.5,302.5C 284.415,284.091 268.082,266.091 251.5,248.5 Z"/></g>
<g><path style="opacity:1" fill="#494e5c" d="M 309.5,266.5 C 313.5,266.5 317.5,266.5 321.5,266.5C 322.167,266.5 322.5,266.833 322.5,267.5C 321.067,268.833 319.733,270.333 318.5,272C 313.5,272.112 308.5,271.779 303.5,271C 302.748,270.329 302.414,269.496 302.5,268.5C 305.01,268.073 307.343,267.407 309.5,266.5 Z"/></g>
<g><path style="opacity:1" fill="#a09fa2" d="M 174.5,266.5 C 174.833,266.5 175.167,266.5 175.5,266.5C 175.829,279.677 175.495,292.677 174.5,305.5C 174.5,304.833 174.167,304.5 173.5,304.5C 174.48,291.913 174.813,279.246 174.5,266.5 Z"/></g>
<g><path style="opacity:1" fill="#212126" d="M 249.5,286.5 C 250.473,286.987 251.473,287.487 252.5,288C 259.469,295.97 266.802,303.636 274.5,311C 272.959,312.371 271.625,313.871 270.5,315.5C 267.047,316.912 266.047,319.245 267.5,322.5C 266.542,322.047 265.708,321.381 265,320.5C 259.985,325.682 254.819,330.682 249.5,335.5C 244.315,331.149 239.649,326.316 235.5,321C 234.906,320.536 234.239,320.369 233.5,320.5C 231.176,316.848 228.509,313.515 225.5,310.5C 233.833,302.833 241.833,294.833 249.5,286.5 Z"/></g>
<g><path style="opacity:1" fill="#434959" d="M 250.5,247.5 C 251.167,247.5 251.5,247.833 251.5,248.5C 268.082,266.091 284.415,284.091 300.5,302.5C 299.761,302.369 299.094,302.536 298.5,303C 299.696,303.654 299.696,304.154 298.5,304.5C 296.618,302.392 294.285,301.059 291.5,300.5C 290.034,301.135 288.7,301.969 287.5,303C 288.956,303.423 289.456,304.256 289,305.5C 286.346,306.572 284.179,308.239 282.5,310.5C 285.704,312.048 285.537,314.048 282,316.5C 281.25,315.874 280.416,315.374 279.5,315C 281.26,314.035 281.594,312.868 280.5,311.5C 277.458,315.648 275.624,320.315 275,325.5C 274.051,321.876 272.551,318.543 270.5,315.5C 271.625,313.871 272.959,312.371 274.5,311C 266.802,303.636 259.469,295.97 252.5,288C 251.473,287.487 250.473,286.987 249.5,286.5C 250.48,273.579 250.814,260.579 250.5,247.5 Z"/></g>
<g><path style="opacity:1" fill="#4a5060" d="M 300.5,302.5 C 308.061,310.614 315.394,318.948 322.5,327.5C 313.009,328.167 303.675,328.833 294.5,329.5C 287.167,329.5 279.833,329.5 272.5,329.5C 271.221,326.888 269.555,324.555 267.5,322.5C 266.047,319.245 267.047,316.912 270.5,315.5C 272.551,318.543 274.051,321.876 275,325.5C 275.624,320.315 277.458,315.648 280.5,311.5C 281.594,312.868 281.26,314.035 279.5,315C 280.416,315.374 281.25,315.874 282,316.5C 285.537,314.048 285.704,312.048 282.5,310.5C 284.179,308.239 286.346,306.572 289,305.5C 289.456,304.256 288.956,303.423 287.5,303C 288.7,301.969 290.034,301.135 291.5,300.5C 294.285,301.059 296.618,302.392 298.5,304.5C 299.696,304.154 299.696,303.654 298.5,303C 299.094,302.536 299.761,302.369 300.5,302.5 Z"/></g>
<g><path style="opacity:1" fill="#686f7f" d="M 243.5,241.5 C 245.5,243.167 247.5,244.833 249.5,246.5C 249.5,247.167 249.833,247.5 250.5,247.5C 250.814,260.579 250.48,273.579 249.5,286.5C 241.833,294.833 233.833,302.833 225.5,310.5C 224.883,310.611 224.383,310.944 224,311.5C 222.949,317.794 223.783,323.794 226.5,329.5C 219.5,329.5 212.5,329.5 205.5,329.5C 195.319,329.827 185.319,329.494 175.5,328.5C 199.599,301.896 223.932,275.396 248.5,249C 246.527,248.505 244.527,248.338 242.5,248.5C 243.398,247.842 244.398,247.176 245.5,246.5C 244.544,244.925 243.877,243.258 243.5,241.5 Z"/></g>
<g><path style="opacity:1" fill="#3c4050" d="M 225.5,310.5 C 228.509,313.515 231.176,316.848 233.5,320.5C 231.474,323.518 229.474,326.518 227.5,329.5C 227.167,329.5 226.833,329.5 226.5,329.5C 223.783,323.794 222.949,317.794 224,311.5C 224.383,310.944 224.883,310.611 225.5,310.5 Z"/></g>
<g><path style="opacity:1" fill="#212025" d="M 205.5,329.5 C 212.5,329.5 219.5,329.5 226.5,329.5C 226.833,329.5 227.167,329.5 227.5,329.5C 232.184,334.185 236.518,339.185 240.5,344.5C 215.655,370.844 190.322,396.678 164.5,422C 147.928,423.471 131.262,423.971 114.5,423.5C 114.351,422.448 114.517,421.448 115,420.5C 125.702,409.965 136.202,399.298 146.5,388.5C 152.167,384.833 156.833,380.167 160.5,374.5C 175.833,359.833 190.833,344.833 205.5,329.5 Z"/></g>
<g><path style="opacity:1" fill="#211f25" d="M 272.5,329.5 C 279.833,329.5 287.167,329.5 294.5,329.5C 309.167,344.833 324.167,359.833 339.5,374.5C 342.885,380.219 347.552,384.552 353.5,387.5C 357.098,392.274 360.931,396.94 365,401.5C 371.969,407.468 378.636,413.801 385,420.5C 385.483,421.448 385.649,422.448 385.5,423.5C 369.163,423.667 352.83,423.5 336.5,423C 310.946,397.446 285.446,371.946 260,346.5C 259.333,345.167 259.333,343.833 260,342.5C 264.37,338.298 268.537,333.964 272.5,329.5 Z"/></g>
<g><path style="opacity:1" fill="#6a7180" d="M 367.5,344.5 C 383.5,344.5 399.5,344.5 415.5,344.5C 415.833,360.181 415.499,375.848 414.5,391.5C 403.709,380.701 392.709,370.368 381.5,360.5C 377.228,354.89 372.562,349.557 367.5,344.5 Z"/></g>
<g><path style="opacity:1" fill="#3c4251" d="M 83.5,344.5 C 100.167,344.5 116.833,344.5 133.5,344.5C 133.833,345.167 134.167,345.833 134.5,346.5C 133.153,345.972 131.819,345.805 130.5,346C 125.956,350.042 121.956,354.542 118.5,359.5C 107.521,370.145 96.5207,380.812 85.5,391.5C 84.914,391.291 84.414,390.957 84,390.5C 83.5001,375.17 83.3334,359.837 83.5,344.5 Z"/></g>
<g><path style="opacity:1" fill="#3e4553" d="M 367.5,344.5 C 372.562,349.557 377.228,354.89 381.5,360.5C 380.167,361.5 378.833,362.5 377.5,363.5C 375.983,363.511 374.816,364.177 374,365.5C 368.113,361.793 363.946,356.793 361.5,350.5C 361.5,349.833 361.833,349.5 362.5,349.5C 364.479,348.188 366.145,346.521 367.5,344.5 Z"/></g>
<g><path style="opacity:1" fill="#69707e" d="M 134.5,346.5 C 136.5,347.833 138.167,349.5 139.5,351.5C 135.736,357.601 130.736,362.268 124.5,365.5C 122.194,363.861 120.194,361.861 118.5,359.5C 121.956,354.542 125.956,350.042 130.5,346C 131.819,345.805 133.153,345.972 134.5,346.5 Z"/></g>
<g><path style="opacity:1" fill="#201f25" d="M 361.5,350.5 C 363.946,356.793 368.113,361.793 374,365.5C 374.816,364.177 375.983,363.511 377.5,363.5C 376.2,364.601 375.7,365.934 376,367.5C 389.863,381.029 403.363,394.862 416.5,409C 412.281,413.57 407.947,417.57 403.5,421C 389.941,406.939 375.941,393.439 361.5,380.5C 357.917,375.246 353.584,370.58 348.5,366.5C 346.481,368.19 344.481,369.856 342.5,371.5C 347.705,363.381 354.038,356.381 361.5,350.5 Z"/></g>
<g><path style="opacity:0.999" fill="#212025" d="M 139.5,351.5 C 144.562,355.559 148.895,360.226 152.5,365.5C 147.167,370.167 142.167,375.167 137.5,380.5C 129.167,388.5 120.833,396.5 112.5,404.5C 106.576,409.083 100.909,414.083 95.5,419.5C 91.6341,416.468 88.3008,412.968 85.5,409C 89.0566,404.951 92.39,400.784 95.5,396.5C 104.798,386.702 114.298,377.035 124,367.5C 124.464,366.906 124.631,366.239 124.5,365.5C 130.736,362.268 135.736,357.601 139.5,351.5 Z"/></g>
<g><path style="opacity:1" fill="#6d7381" d="M 152.5,365.5 C 155.138,368.474 157.805,371.474 160.5,374.5C 156.833,380.167 152.167,384.833 146.5,388.5C 142.854,386.518 139.854,383.851 137.5,380.5C 142.167,375.167 147.167,370.167 152.5,365.5 Z"/></g>
<g><path style="opacity:0.999" fill="#3e4350" d="M 361.5,380.5 C 359.451,383.55 356.784,385.883 353.5,387.5C 347.552,384.552 342.885,380.219 339.5,374.5C 340.167,373.167 341.167,372.167 342.5,371.5C 344.481,369.856 346.481,368.19 348.5,366.5C 353.584,370.58 357.917,375.246 361.5,380.5 Z"/></g>
<g><path style="opacity:0.102" fill="#0b0911" d="M 95.5,396.5 C 92.39,400.784 89.0566,404.951 85.5,409C 88.3008,412.968 91.6341,416.468 95.5,419.5C 100.909,414.083 106.576,409.083 112.5,404.5C 107.17,410.663 101.337,416.329 95,421.5C 90.6091,417.612 86.7757,413.279 83.5,408.5C 87.1877,404.146 91.1877,400.146 95.5,396.5 Z"/></g>
</svg>
