<?xml version="1.0" encoding="UTF-8"?>
<!DOCTYPE svg PUBLIC "-//W3C//DTD SVG 1.1//EN" "http://www.w3.org/Graphics/SVG/1.1/DTD/svg11.dtd">
<svg xmlns="http://www.w3.org/2000/svg" version="1.1" width="500px" height="500px" style="shape-rendering:geometricPrecision; text-rendering:geometricPrecision; image-rendering:optimizeQuality; fill-rule:evenodd; clip-rule:evenodd" xmlns:xlink="http://www.w3.org/1999/xlink">
<g><path style="opacity:0.008" fill="#000000" d="M 442.5,72.5 C 442.897,71.475 443.563,71.3083 444.5,72C 443.906,72.4643 443.239,72.631 442.5,72.5 Z"/></g>
<g><path style="opacity:0.004" fill="#000000" d="M 396.5,72.5 C 397.833,73.1667 397.833,73.1667 396.5,72.5 Z"/></g>
<g><path style="opacity:0.947" fill="#000000" d="M 123.5,75.5 C 142.253,75.4659 158.086,82.1325 171,95.5C 180.426,108.609 185.593,123.276 186.5,139.5C 186.461,145.773 186.461,152.107 186.5,158.5C 185.345,173.175 180.679,186.008 172.5,197C 162.168,210.748 147.835,217.748 129.5,218C 108.927,218.826 88.4269,218.659 68,217.5C 67.5,170.501 67.3333,123.501 67.5,76.5C 86.3408,76.8302 105.007,76.4969 123.5,75.5 Z M 148.5,114.5 C 152.031,120.251 154.197,126.585 155,133.5C 155.667,142.833 155.667,152.167 155,161.5C 154.444,159.405 153.944,159.238 153.5,161C 154.688,165.756 154.021,170.256 151.5,174.5C 149.912,183.103 144.578,188.769 135.5,191.5C 134.833,191.167 134.167,190.833 133.5,190.5C 131.038,191.716 128.371,192.382 125.5,192.5C 116.182,193.277 106.849,193.61 97.5,193.5C 97.5,163.167 97.5,132.833 97.5,102.5C 110.213,102.126 122.88,102.626 135.5,104C 138.005,104.51 139.505,106.01 140,108.5C 141.016,107.366 141.683,107.699 142,109.5C 143.073,108.72 144.24,108.887 145.5,110C 145.167,110.333 144.833,110.667 144.5,111C 146.324,111.66 147.657,112.827 148.5,114.5 Z"/></g>
<g><path style="opacity:0.928" fill="#010101" d="M 357.5,83.5 C 357.932,84.7095 358.599,85.7095 359.5,86.5C 363.597,93.7036 367.93,100.704 372.5,107.5C 374.26,110.163 375.927,112.33 377.5,114C 376.733,115.47 376.067,116.97 375.5,118.5C 374.662,118.842 374.328,119.508 374.5,120.5C 373.5,120.833 372.833,121.5 372.5,122.5C 371.662,122.842 371.328,123.508 371.5,124.5C 370.833,124.5 370.5,124.833 370.5,125.5C 367.693,128.428 365.36,131.761 363.5,135.5C 362.167,136.167 361.167,137.167 360.5,138.5C 359.833,138.5 359.5,138.833 359.5,139.5C 359.167,139.5 358.833,139.5 358.5,139.5C 357.974,137.77 356.974,136.436 355.5,135.5C 354.062,134.718 353.062,133.051 352.5,130.5C 352.573,128.973 351.906,127.973 350.5,127.5C 345.86,119.541 340.86,111.874 335.5,104.5C 330.53,95.3456 325.196,87.0123 319.5,79.5C 319.343,78.1266 319.51,76.7932 320,75.5C 331.105,76.1565 342.272,76.8232 353.5,77.5C 354.857,79.5654 356.19,81.5654 357.5,83.5 Z"/></g>
<g><path style="opacity:0.941" fill="#000000" d="M 309.5,75.5 C 310.117,75.6107 310.617,75.944 311,76.5C 311.5,85.1603 311.666,93.8269 311.5,102.5C 297.822,102.458 284.156,102.458 270.5,102.5C 270.667,140.835 270.5,179.168 270,217.5C 260.333,218.833 250.667,218.833 241,217.5C 240.667,179.167 240.333,140.833 240,102.5C 239.193,106.449 238.693,106.449 238.5,102.5C 225.483,102.832 212.483,102.499 199.5,101.5C 198.179,93.3033 198.179,85.1367 199.5,77C 236.336,76.8325 273.002,76.3325 309.5,75.5 Z"/></g>
<g><path style="opacity:1" fill="#033425" d="M 423.5,73.5 C 423.833,73.5 424.167,73.5 424.5,73.5C 428.034,75.0476 431.867,75.7143 436,75.5C 439.086,75.478 442.086,75.1447 445,74.5C 447.768,75.2076 448.601,76.7076 447.5,79C 448.194,82.0249 449.194,84.8582 450.5,87.5C 450.5,87.8333 450.5,88.1667 450.5,88.5C 449.069,88.8807 448.236,89.8807 448,91.5C 447.082,96.0978 445.916,100.598 444.5,105C 444.833,105.333 445.167,105.667 445.5,106C 444.107,108.666 442.441,111.166 440.5,113.5C 440.957,114.298 441.624,114.631 442.5,114.5C 442.5,114.833 442.5,115.167 442.5,115.5C 438.273,115.401 435.273,117.235 433.5,121C 433.833,121.333 434.167,121.667 434.5,122C 433.205,124.758 431.539,127.258 429.5,129.5C 429.624,130.107 429.957,130.44 430.5,130.5C 430.068,131.71 429.401,132.71 428.5,133.5C 428.483,131.972 427.816,131.472 426.5,132C 421.827,137.006 416.827,141.672 411.5,146C 403.567,150.213 396.067,155.046 389,160.5C 388.667,160.167 388.333,159.833 388,159.5C 386.188,161.304 386.354,162.304 388.5,162.5C 388.167,163.5 387.5,164.167 386.5,164.5C 386.265,163.903 385.765,163.57 385,163.5C 382.784,164.601 380.784,165.934 379,167.5C 378.667,167.167 378.333,166.833 378,166.5C 373.29,171.483 367.457,174.317 360.5,175C 360.833,175.333 361.167,175.667 361.5,176C 359.86,177.395 358.36,178.895 357,180.5C 356.667,179.833 356.333,179.167 356,178.5C 354.639,180.028 353.472,181.695 352.5,183.5C 343.605,188.679 335.438,194.679 328,201.5C 327.667,201.167 327.333,200.833 327,200.5C 325.451,203.138 324.285,205.971 323.5,209C 323.57,209.765 323.903,210.265 324.5,210.5C 324.167,211.5 323.5,212.167 322.5,212.5C 322.631,211.761 322.464,211.094 322,210.5C 320.168,213.361 318.001,215.861 315.5,218C 315.833,218.333 316.167,218.667 316.5,219C 315.068,219.27 314.068,218.604 313.5,217C 314.464,211.067 316.131,205.067 318.5,199C 316.759,197.917 316.093,196.75 316.5,195.5C 316.5,195.167 316.5,194.833 316.5,194.5C 317.376,194.631 318.043,194.298 318.5,193.5C 327.431,172.793 341.098,156.959 359.5,146C 358.584,145.722 357.918,145.222 357.5,144.5C 358.167,144.5 358.5,144.167 358.5,143.5C 358.833,143.5 359.167,143.5 359.5,143.5C 363.608,142.521 367.274,140.688 370.5,138C 372.29,134.9 374.457,132.067 377,129.5C 377.333,129.833 377.667,130.167 378,130.5C 378.931,128.541 379.764,126.541 380.5,124.5C 381.325,123.614 382.325,123.281 383.5,123.5C 383.137,121.089 384.137,119.589 386.5,119C 386.216,117.044 386.216,114.877 386.5,112.5C 386.833,111.167 387.167,109.833 387.5,108.5C 390.361,108.487 391.361,107.321 390.5,105C 392.394,103.899 393.061,102.566 392.5,101C 393.701,100.097 394.535,98.9308 395,97.5C 395.448,92.4558 396.614,87.6225 398.5,83C 397.167,81 397.167,79 398.5,77C 407.038,76.2666 415.372,75.0999 423.5,73.5 Z"/></g>
<g><path style="opacity:0.012" fill="#000000" d="M 319.5,79.5 C 318.833,80.1667 318.833,80.1667 319.5,79.5 Z"/></g>
<g><path style="opacity:0.004" fill="#000000" d="M 312.5,80.5 C 313.833,81.1667 313.833,81.1667 312.5,80.5 Z"/></g>
<g><path style="opacity:0.855" fill="#042119" d="M 424.5,73.5 C 432.507,73.3336 440.507,73.5003 448.5,74C 449.126,74.7504 449.626,75.5838 450,76.5C 450.499,80.1516 450.665,83.8183 450.5,87.5C 449.194,84.8582 448.194,82.0249 447.5,79C 448.601,76.7076 447.768,75.2076 445,74.5C 442.086,75.1447 439.086,75.478 436,75.5C 431.867,75.7143 428.034,75.0476 424.5,73.5 Z"/></g>
<g><path style="opacity:0.016" fill="#000000" d="M 357.5,82.5 C 358.833,83.1667 358.833,83.1667 357.5,82.5 Z"/></g>
<g><path style="opacity:0.004" fill="#000000" d="M 359.5,85.5 C 360.833,86.1667 360.833,86.1667 359.5,85.5 Z"/></g>
<g><path style="opacity:0.465" fill="#082319" d="M 423.5,73.5 C 415.372,75.0999 407.038,76.2666 398.5,77C 397.167,79 397.167,81 398.5,83C 396.614,87.6225 395.448,92.4558 395,97.5C 394.535,98.9308 393.701,100.097 392.5,101C 393.061,102.566 392.394,103.899 390.5,105C 391.361,107.321 390.361,108.487 387.5,108.5C 391.554,101.459 394.054,94.1261 395,86.5C 395.203,82.5787 395.703,78.7454 396.5,75C 405.459,73.7829 414.459,73.2829 423.5,73.5 Z"/></g>
<g><path style="opacity:0.718" fill="#062116" d="M 450.5,88.5 C 450.098,93.1607 449.098,97.6607 447.5,102C 447.957,102.414 448.291,102.914 448.5,103.5C 446.495,107.197 444.495,110.864 442.5,114.5C 441.624,114.631 440.957,114.298 440.5,113.5C 442.441,111.166 444.107,108.666 445.5,106C 445.167,105.667 444.833,105.333 444.5,105C 445.916,100.598 447.082,96.0978 448,91.5C 448.236,89.8807 449.069,88.8807 450.5,88.5 Z"/></g>
<g><path style="opacity:0.027" fill="#000000" d="M 271.5,104.5 C 272.833,105.167 272.833,105.167 271.5,104.5 Z"/></g>
<g><path style="opacity:0.012" fill="#000000" d="M 335.5,104.5 C 334.833,105.167 334.833,105.167 335.5,104.5 Z"/></g>
<g><path style="opacity:0.012" fill="#000000" d="M 372.5,106.5 C 373.833,107.167 373.833,107.167 372.5,106.5 Z"/></g>
<g><path style="opacity:0.004" fill="#000000" d="M 377.5,115.5 C 378.833,116.167 378.833,116.167 377.5,115.5 Z"/></g>
<g><path style="opacity:0.008" fill="#000000" d="M 375.5,118.5 C 376.833,119.167 376.833,119.167 375.5,118.5 Z"/></g>
<g><path style="opacity:0.016" fill="#000000" d="M 374.5,120.5 C 375.833,121.167 375.833,121.167 374.5,120.5 Z"/></g>
<g><path style="opacity:1" fill="#08261d" d="M 442.5,115.5 C 439.766,119.95 436.766,124.283 433.5,128.5C 432.643,129.425 431.643,130.092 430.5,130.5C 429.957,130.44 429.624,130.107 429.5,129.5C 431.539,127.258 433.205,124.758 434.5,122C 434.167,121.667 433.833,121.333 433.5,121C 435.273,117.235 438.273,115.401 442.5,115.5 Z"/></g>
<g><path style="opacity:0.686" fill="#08241c" d="M 386.5,112.5 C 386.216,114.877 386.216,117.044 386.5,119C 384.137,119.589 383.137,121.089 383.5,123.5C 382.325,123.281 381.325,123.614 380.5,124.5C 379.764,126.541 378.931,128.541 378,130.5C 377.667,130.167 377.333,129.833 377,129.5C 374.457,132.067 372.29,134.9 370.5,138C 367.274,140.688 363.608,142.521 359.5,143.5C 359.5,143.167 359.5,142.833 359.5,142.5C 360.833,142.167 360.833,141.833 359.5,141.5C 359.5,140.833 359.5,140.167 359.5,139.5C 360.167,139.5 360.5,139.167 360.5,138.5C 361.222,138.918 361.722,139.584 362,140.5C 364.46,139.042 366.627,137.209 368.5,135C 368.167,134.667 367.833,134.333 367.5,134C 371.605,131.29 375.272,128.123 378.5,124.5C 378.291,123.914 377.957,123.414 377.5,123C 379.081,122.293 380.581,121.46 382,120.5C 383.397,117.646 384.897,114.98 386.5,112.5 Z"/></g>
<g><path style="opacity:0.008" fill="#000000" d="M 372.5,122.5 C 373.833,123.167 373.833,123.167 372.5,122.5 Z"/></g>
<g><path style="opacity:0.004" fill="#000000" d="M 371.5,124.5 C 372.833,125.167 372.833,125.167 371.5,124.5 Z"/></g>
<g><path style="opacity:0.024" fill="#000000" d="M 370.5,125.5 C 370.833,125.5 371.167,125.5 371.5,125.5C 371.315,126.17 370.981,126.17 370.5,125.5 Z"/></g>
<g><path style="opacity:0.008" fill="#000000" d="M 350.5,127.5 C 349.833,128.167 349.833,128.167 350.5,127.5 Z"/></g>
<g><path style="opacity:0.02" fill="#000000" d="M 352.5,130.5 C 351.833,131.167 351.833,131.167 352.5,130.5 Z"/></g>
<g><path style="opacity:0.004" fill="#000000" d="M 355.5,135.5 C 354.833,136.167 354.833,136.167 355.5,135.5 Z"/></g>
<g><path style="opacity:0.006" fill="#000000" d="M 363.5,135.5 C 364.833,136.167 364.833,136.833 363.5,137.5C 363.5,136.833 363.5,136.167 363.5,135.5 Z"/></g>
<g><path style="opacity:0.031" fill="#00201f" d="M 363.5,137.5 C 362.833,138.167 362.833,138.167 363.5,137.5 Z"/></g>
<g><path style="opacity:0.02" fill="#003300" d="M 356.5,139.5 C 355.833,138.167 355.833,138.167 356.5,139.5 Z"/></g>
<g><path style="opacity:0.004" fill="#000000" d="M 356.5,139.5 C 357.167,139.5 357.833,139.5 358.5,139.5C 357.833,140.833 357.167,140.833 356.5,139.5 Z"/></g>
<g><path style="opacity:0.006" fill="#0d1a04" d="M 359.5,141.5 C 359.5,141.833 359.5,142.167 359.5,142.5C 358.833,142.5 358.5,142.833 358.5,143.5C 358.167,143.5 357.833,143.5 357.5,143.5C 357.5,142.167 358.167,141.5 359.5,141.5 Z"/></g>
<g><path style="opacity:0.012" fill="#000000" d="M 417.5,143.5 C 417.833,143.5 418.167,143.5 418.5,143.5C 418.315,144.17 417.981,144.17 417.5,143.5 Z"/></g>
<g><path style="opacity:0.008" fill="#000000" d="M 355.5,145.5 C 354.833,144.167 354.833,144.167 355.5,145.5 Z"/></g>
<g><path style="opacity:0.012" fill="#000000" d="M 404.5,153.5 C 405.833,154.167 405.833,154.167 404.5,153.5 Z"/></g>
<g><path style="opacity:0.024" fill="#292a29" d="M 402.5,154.5 C 403.833,155.167 403.833,155.167 402.5,154.5 Z"/></g>
<g><path style="opacity:0.016" fill="#004000" d="M 401.5,155.5 C 401.833,155.5 402.167,155.5 402.5,155.5C 402.315,156.17 401.981,156.17 401.5,155.5 Z"/></g>
<g><path style="opacity:0.8" fill="#0b2720" d="M 428.5,133.5 C 428.141,135.485 427.308,136.151 426,135.5C 423.662,138.338 421.162,141.004 418.5,143.5C 418.167,142.167 417.833,142.167 417.5,143.5C 412.832,147.227 408.499,150.56 404.5,153.5C 403.508,153.328 402.842,153.662 402.5,154.5C 401.833,154.5 401.5,154.833 401.5,155.5C 400.508,155.328 399.842,155.662 399.5,156.5C 397.205,157.136 395.539,158.469 394.5,160.5C 394.167,159.167 393.833,159.167 393.5,160.5C 391.95,161.441 390.284,162.107 388.5,162.5C 386.354,162.304 386.188,161.304 388,159.5C 388.333,159.833 388.667,160.167 389,160.5C 396.067,155.046 403.567,150.213 411.5,146C 416.827,141.672 421.827,137.006 426.5,132C 427.816,131.472 428.483,131.972 428.5,133.5 Z"/></g>
<g><path style="opacity:0.004" fill="#000000" d="M 399.5,156.5 C 400.833,157.167 400.833,157.167 399.5,156.5 Z"/></g>
<g><path style="opacity:0.012" fill="#000000" d="M 404.5,157.5 C 403.833,156.167 403.833,156.167 404.5,157.5 Z"/></g>
<g><path style="opacity:0.008" fill="#000000" d="M 403.5,157.5 C 402.833,158.167 402.833,158.167 403.5,157.5 Z"/></g>
<g><path style="opacity:0.919" fill="#010101" d="M 404.5,157.5 C 405.496,157.414 406.329,157.748 407,158.5C 420.016,178.022 432.85,197.022 445.5,215.5C 445.5,216.5 445.5,217.5 445.5,218.5C 433.829,218.667 422.162,218.5 410.5,218C 402.327,205.989 394.661,193.656 387.5,181C 393.822,172.968 399.488,165.134 404.5,157.5 Z"/></g>
<g><path style="opacity:0.02" fill="#323332" d="M 393.5,160.5 C 393.833,160.5 394.167,160.5 394.5,160.5C 394.315,161.17 393.981,161.17 393.5,160.5 Z"/></g>
<g><path style="opacity:0.627" fill="#07231b" d="M 357.5,143.5 C 357.5,143.833 357.5,144.167 357.5,144.5C 357.918,145.222 358.584,145.722 359.5,146C 341.098,156.959 327.431,172.793 318.5,193.5C 318.043,194.298 317.376,194.631 316.5,194.5C 318.382,187.611 322.049,180.777 327.5,174C 333.473,164.347 341.473,156.013 351.5,149C 351.167,148.667 350.833,148.333 350.5,148C 352.491,147.626 354.158,146.793 355.5,145.5C 356.167,144.833 356.833,144.167 357.5,143.5 Z"/></g>
<g><path style="opacity:0.776" fill="#0a261d" d="M 386.5,164.5 C 377.068,170.339 368.568,176.006 361,181.5C 360,181.5 359,181.5 358,181.5C 354.876,184.208 351.043,186.708 346.5,189C 344.072,190.59 342.072,192.756 340.5,195.5C 340.167,194.167 339.833,194.167 339.5,195.5C 337.873,197.464 335.873,198.797 333.5,199.5C 333.649,200.552 333.483,201.552 333,202.5C 332.667,202.167 332.333,201.833 332,201.5C 331.392,203.066 330.558,204.4 329.5,205.5C 329.167,204.167 328.833,204.167 328.5,205.5C 327.468,207.378 326.134,209.045 324.5,210.5C 323.903,210.265 323.57,209.765 323.5,209C 324.285,205.971 325.451,203.138 327,200.5C 327.333,200.833 327.667,201.167 328,201.5C 335.438,194.679 343.605,188.679 352.5,183.5C 353.472,181.695 354.639,180.028 356,178.5C 356.333,179.167 356.667,179.833 357,180.5C 358.36,178.895 359.86,177.395 361.5,176C 361.167,175.667 360.833,175.333 360.5,175C 367.457,174.317 373.29,171.483 378,166.5C 378.333,166.833 378.667,167.167 379,167.5C 380.784,165.934 382.784,164.601 385,163.5C 385.765,163.57 386.265,163.903 386.5,164.5 Z"/></g>
<g><path style="opacity:0.004" fill="#000000" d="M 339.5,195.5 C 339.833,195.5 340.167,195.5 340.5,195.5C 340.315,196.17 339.981,196.17 339.5,195.5 Z"/></g>
<g><path style="opacity:0.012" fill="#000000" d="M 328.5,205.5 C 328.833,205.5 329.167,205.5 329.5,205.5C 329.315,206.17 328.981,206.17 328.5,205.5 Z"/></g>
<g><path style="opacity:0.004" fill="#000000" d="M 445.5,214.5 C 446.833,215.167 446.833,215.167 445.5,214.5 Z"/></g>
<g><path style="opacity:0.667" fill="#06271d" d="M 316.5,195.5 C 316.093,196.75 316.759,197.917 318.5,199C 316.131,205.067 314.464,211.067 313.5,217C 314.068,218.604 315.068,219.27 316.5,219C 316.167,218.667 315.833,218.333 315.5,218C 318.001,215.861 320.168,213.361 322,210.5C 322.464,211.094 322.631,211.761 322.5,212.5C 322.611,213.117 322.944,213.617 323.5,214C 321.816,215.209 320.483,216.709 319.5,218.5C 317.622,219.934 316.955,221.601 317.5,223.5C 316.167,224.167 315.167,225.167 314.5,226.5C 313.25,226.423 312.417,225.756 312,224.5C 310.834,215.004 312,205.838 315.5,197C 314.288,195.893 314.621,195.393 316.5,195.5 Z"/></g>
<g><path style="opacity:0.012" fill="#000000" d="M 446.5,216.5 C 447.833,217.167 447.833,217.167 446.5,216.5 Z"/></g>
<g><path style="opacity:0.004" fill="#000000" d="M 319.5,218.5 C 320.833,219.167 320.833,219.167 319.5,218.5 Z"/></g>
<g><path style="opacity:0.004" fill="#000000" d="M 317.5,223.5 C 318.833,224.167 318.833,224.167 317.5,223.5 Z"/></g>
<g><path style="opacity:0.024" fill="#000000" d="M 314.5,226.5 C 315.833,227.167 315.833,227.167 314.5,226.5 Z"/></g>
<g><path style="opacity:0.012" fill="#000000" d="M 142.5,250.5 C 143.833,251.167 143.833,251.167 142.5,250.5 Z"/></g>
<g><path style="opacity:0.016" fill="#000000" d="M 265.5,251.5 C 264.833,250.167 264.833,250.167 265.5,251.5 Z"/></g>
<g><path style="opacity:0.008" fill="#000000" d="M 352.5,250.5 C 353.833,251.167 353.833,251.167 352.5,250.5 Z"/></g>
<g><path style="opacity:0.016" fill="#000000" d="M 376.5,250.5 C 377.833,251.167 377.833,251.167 376.5,250.5 Z"/></g>
<g><path style="opacity:0.012" fill="#000000" d="M 380.5,250.5 C 381.833,251.167 381.833,251.167 380.5,250.5 Z"/></g>
<g><path style="opacity:0.016" fill="#00403f" d="M 153.5,252.5 C 152.833,251.167 152.833,251.167 153.5,252.5 Z"/></g>
<g><path style="opacity:0.024" fill="#1e1e1e" d="M 185.5,252.5 C 184.761,252.631 184.094,252.464 183.5,252C 184.437,251.308 185.103,251.475 185.5,252.5 Z"/></g>
<g><path style="opacity:0.012" fill="#000000" d="M 147.5,253.5 C 148.525,253.897 148.692,254.563 148,255.5C 147.536,254.906 147.369,254.239 147.5,253.5 Z"/></g>
<g><path style="opacity:0.012" fill="#000000" d="M 150.5,253.5 C 151.525,253.897 151.692,254.563 151,255.5C 150.536,254.906 150.369,254.239 150.5,253.5 Z"/></g>
<g><path style="opacity:0.983" fill="#09251a" d="M 166.5,258.5 C 169.977,257.677 173.644,257.177 177.5,257C 180.17,255.276 179.837,254.109 176.5,253.5C 170.42,253.425 163.753,253.592 156.5,254C 155.643,254.689 154.977,255.522 154.5,256.5C 156.805,261.325 156.472,265.992 153.5,270.5C 153.5,264.5 153.5,258.5 153.5,252.5C 155.792,252.756 157.959,252.423 160,251.5C 167.421,252.316 174.921,252.816 182.5,253C 183.167,253.333 183.833,253.667 184.5,254C 182.954,255.44 182.121,257.273 182,259.5C 176.928,258.529 171.762,258.195 166.5,258.5 Z"/></g>
<g><path style="opacity:0.02" fill="#091c1c" d="M 113.5,253.5 C 114.573,254.251 114.74,255.251 114,256.5C 113.517,255.552 113.351,254.552 113.5,253.5 Z"/></g>
<g><path style="opacity:0.02" fill="#003332" d="M 183.5,255.5 C 184.833,256.167 184.833,256.167 183.5,255.5 Z"/></g>
<g><path style="opacity:1" fill="#07261b" d="M 214.5,252.5 C 212.782,253.224 210.948,253.891 209,254.5C 208.667,253.833 208.333,253.167 208,252.5C 201.892,253.597 195.726,254.597 189.5,255.5C 191.353,256.76 193.186,256.76 195,255.5C 196.309,257.891 197.309,257.891 198,255.5C 198.333,256.167 198.667,256.833 199,257.5C 200.204,267.784 200.87,278.118 201,288.5C 201.667,289.833 202.333,289.833 203,288.5C 203.498,278.474 203.498,268.474 203,258.5C 203.5,258 204,257.5 204.5,257C 208.167,256.667 211.833,256.333 215.5,256C 216.256,254.62 216.922,254.453 217.5,255.5C 217.833,258.167 218.167,258.167 218.5,255.5C 221.606,255.588 221.94,256.922 219.5,259.5C 218.719,261.628 217.719,261.795 216.5,260C 216.833,259.667 217.167,259.333 217.5,259C 213.179,258.501 208.846,258.334 204.5,258.5C 204.5,269.5 204.5,280.5 204.5,291.5C 202.5,291.5 200.5,291.5 198.5,291.5C 198.5,280.5 198.5,269.5 198.5,258.5C 194.069,258.769 189.735,258.436 185.5,257.5C 185.5,255.833 185.5,254.167 185.5,252.5C 195.795,251.64 205.462,251.64 214.5,252.5 Z"/></g>
<g><path style="opacity:0.008" fill="#000000" d="M 380.5,256.5 C 380.5,256.167 380.5,255.833 380.5,255.5C 383.167,255.833 383.167,256.167 380.5,256.5 Z"/></g>
<g><path style="opacity:0.012" fill="#000000" d="M 125.5,256.5 C 126.833,257.167 126.833,257.167 125.5,256.5 Z"/></g>
<g><path style="opacity:0.039" fill="#1a3332" d="M 271.5,256.5 C 272.833,257.167 272.833,257.167 271.5,256.5 Z"/></g>
<g><path style="opacity:0.008" fill="#000000" d="M 185.5,257.5 C 184.833,258.167 184.833,258.167 185.5,257.5 Z"/></g>
<g><path style="opacity:0.006" fill="#000000" d="M 267.5,258.5 C 267.897,257.475 268.563,257.308 269.5,258C 268.906,258.464 268.239,258.631 267.5,258.5 Z"/></g>
<g><path style="opacity:0.012" fill="#173411" d="M 271.5,257.5 C 271.833,258.167 272.167,258.833 272.5,259.5C 271.833,259.5 271.167,259.5 270.5,259.5C 270.328,258.508 270.662,257.842 271.5,257.5 Z"/></g>
<g><path style="opacity:0.004" fill="#0b1a02" d="M 196.5,259.5 C 197.525,259.897 197.692,260.563 197,261.5C 196.536,260.906 196.369,260.239 196.5,259.5 Z"/></g>
<g><path style="opacity:0.024" fill="#262626" d="M 270.5,259.5 C 270.631,260.239 270.464,260.906 270,261.5C 269.308,260.563 269.475,259.897 270.5,259.5 Z"/></g>
<g><path style="opacity:0.008" fill="#000000" d="M 344.5,260.5 C 345.833,261.167 345.833,261.167 344.5,260.5 Z"/></g>
<g><path style="opacity:0.835" fill="#072b1e" d="M 307.5,278.5 C 304.919,281.32 303.086,284.654 302,288.5C 301.667,288.167 301.333,287.833 301,287.5C 299.5,289 298,290.5 296.5,292C 286.997,293.91 278.997,291.91 272.5,286C 272.833,285.667 273.167,285.333 273.5,285C 271.387,283.016 270.22,280.516 270,277.5C 269.346,278.696 268.846,278.696 268.5,277.5C 268.92,271.259 270.253,265.259 272.5,259.5C 278.721,251.712 286.554,249.712 296,253.5C 296.333,253.167 296.667,252.833 297,252.5C 300.194,255.694 303.027,258.527 305.5,261C 305.167,261.333 304.833,261.667 304.5,262C 305.741,264.563 307.074,267.063 308.5,269.5C 308.9,272.07 308.234,274.57 306.5,277C 306.57,277.765 306.903,278.265 307.5,278.5 Z M 297.5,262.5 C 296.167,263.167 296.167,263.833 297.5,264.5C 300.503,268.519 301.003,273.519 299,279.5C 297.804,281.286 296.304,282.619 294.5,283.5C 293.629,285.291 291.629,286.291 288.5,286.5C 286.201,286.401 284.201,285.734 282.5,284.5C 280.866,283.419 279.533,282.085 278.5,280.5C 277.475,279.626 276.808,278.459 276.5,277C 277.66,275.003 277.66,273.169 276.5,271.5C 276.205,269.265 276.539,267.265 277.5,265.5C 277.574,263.589 278.574,262.422 280.5,262C 280.167,261.667 279.833,261.333 279.5,261C 281.879,259.233 284.379,258.067 287,257.5C 289.794,257.604 292.127,258.604 294,260.5C 295.579,259.828 296.746,260.495 297.5,262.5 Z"/></g>
<g><path style="opacity:0.008" fill="#000000" d="M 161.5,265.5 C 162.525,265.897 162.692,266.563 162,267.5C 161.536,266.906 161.369,266.239 161.5,265.5 Z"/></g>
<g><path style="opacity:0.008" fill="#1f1f1f" d="M 348.5,264.5 C 349.525,264.897 349.692,265.563 349,266.5C 348.536,265.906 348.369,265.239 348.5,264.5 Z"/></g>
<g><path style="opacity:0.012" fill="#000000" d="M 370.5,265.5 C 371.833,266.167 371.833,266.167 370.5,265.5 Z"/></g>
<g><path style="opacity:0.004" fill="#000000" d="M 348.5,267.5 C 349.833,268.167 349.833,268.167 348.5,267.5 Z"/></g>
<g><path style="opacity:0.02" fill="#003332" d="M 267.5,268.5 C 268.833,269.167 268.833,269.167 267.5,268.5 Z"/></g>
<g><path style="opacity:1" fill="#062e20" d="M 125.5,257.5 C 127.565,261.195 130.065,265.195 133,269.5C 134.039,270.71 135.206,271.71 136.5,272.5C 136.5,273.167 136.5,273.833 136.5,274.5C 135.768,275.808 134.934,277.142 134,278.5C 133,277.167 132,275.833 131,274.5C 130.722,275.416 130.222,276.082 129.5,276.5C 129.672,275.508 129.338,274.842 128.5,274.5C 128.141,272.515 127.308,271.849 126,272.5C 123.674,271.187 122.341,269.187 122,266.5C 121.187,274.08 121.353,281.58 122.5,289C 120.697,291.103 118.364,291.936 115.5,291.5C 115.823,278.254 115.489,265.087 114.5,252C 115.449,251.383 116.282,251.549 117,252.5C 117.691,250.109 118.691,250.109 120,252.5C 120.333,252.167 120.667,251.833 121,251.5C 122.363,253.684 123.863,255.684 125.5,257.5 Z"/></g>
<g><path style="opacity:0.004" fill="#000000" d="M 310.5,270.5 C 311.525,270.897 311.692,271.563 311,272.5C 310.536,271.906 310.369,271.239 310.5,270.5 Z"/></g>
<g><path style="opacity:0.012" fill="#000000" d="M 369.5,270.5 C 370.833,271.167 370.833,271.167 369.5,270.5 Z"/></g>
<g><path style="opacity:0.004" fill="#000000" d="M 136.5,271.5 C 137.833,272.167 137.833,272.167 136.5,271.5 Z"/></g>
<g><path style="opacity:0.024" fill="#1b1b1b" d="M 267.5,270.5 C 268.598,271.601 268.765,272.934 268,274.5C 267.51,273.207 267.343,271.873 267.5,270.5 Z"/></g>
<g><path style="opacity:0.004" fill="#000000" d="M 341.5,271.5 C 342.833,272.167 342.833,272.167 341.5,271.5 Z"/></g>
<g><path style="opacity:0.867" fill="#07261b" d="M 160.5,259.5 C 160.661,262.19 160.661,265.19 160.5,268.5C 167.5,268.5 174.5,268.5 181.5,268.5C 181.5,270.5 181.5,272.5 181.5,274.5C 174.5,274.5 167.5,274.5 160.5,274.5C 160.5,278.167 160.5,281.833 160.5,285.5C 162.5,285.5 164.5,285.5 166.5,285.5C 164.105,286.814 161.605,286.814 159,285.5C 158.333,281.833 158.333,278.167 159,274.5C 160.079,272.606 161.413,272.273 163,273.5C 168.116,272.856 173.282,272.189 178.5,271.5C 172.354,270.613 166.354,270.28 160.5,270.5C 159.192,266.685 159.192,263.019 160.5,259.5 Z"/></g>
<g><path style="opacity:0.856" fill="#082d20" d="M 341.5,271.5 C 339.799,272.211 338.799,273.545 338.5,275.5C 338.167,275.5 337.833,275.5 337.5,275.5C 337.5,276.167 337.833,276.5 338.5,276.5C 339.167,277.167 339.833,277.833 340.5,278.5C 339.167,278.833 339.167,279.167 340.5,279.5C 341.34,281.853 342.674,283.853 344.5,285.5C 344.328,286.492 344.662,287.158 345.5,287.5C 345.5,288.167 345.833,288.5 346.5,288.5C 346.369,289.239 346.536,289.906 347,290.5C 349.179,289.16 349.679,289.493 348.5,291.5C 344.954,291.376 341.288,291.542 337.5,292C 337.833,291.667 338.167,291.333 338.5,291C 337.74,289.559 337.074,288.059 336.5,286.5C 334.375,283.41 331.708,280.91 328.5,279C 330.986,278.295 330.986,277.462 328.5,276.5C 328.167,275.167 327.833,275.167 327.5,276.5C 326.033,276.106 324.533,275.773 323,275.5C 321.674,275.755 320.674,276.422 320,277.5C 319.667,276.833 319.333,276.167 319,275.5C 318.501,280.823 318.334,286.156 318.5,291.5C 316.5,291.5 314.5,291.5 312.5,291.5C 312.333,278.163 312.5,264.829 313,251.5C 321.686,251.877 330.52,252.711 339.5,254C 345.312,259.692 345.979,265.526 341.5,271.5 Z M 325.5,257.5 C 328.655,257.99 331.655,258.656 334.5,259.5C 335.75,259.577 336.583,260.244 337,261.5C 337.765,263.066 337.598,264.399 336.5,265.5C 336.565,265.062 336.399,264.728 336,264.5C 335.167,265.333 334.333,266.167 333.5,267C 333.728,267.399 334.062,267.565 334.5,267.5C 329.36,268.488 324.026,268.821 318.5,268.5C 318.5,265.167 318.5,261.833 318.5,258.5C 319.268,259.263 319.768,260.263 320,261.5C 320.483,260.552 320.649,259.552 320.5,258.5C 322.415,258.784 324.081,258.451 325.5,257.5 Z M 337.5,275.5 C 336.711,275.217 336.044,274.717 335.5,274C 336.816,273.472 337.483,273.972 337.5,275.5 Z"/></g>
<g><path style="opacity:0.005" fill="#000000" d="M 318.5,258.5 C 320.607,257.532 322.941,257.198 325.5,257.5C 324.081,258.451 322.415,258.784 320.5,258.5C 320.649,259.552 320.483,260.552 320,261.5C 319.768,260.263 319.268,259.263 318.5,258.5 Z"/></g>
<g><path style="opacity:0.012" fill="#000000" d="M 128.5,274.5 C 127.833,275.167 127.833,275.167 128.5,274.5 Z"/></g>
<g><path style="opacity:0.949" fill="#06271b" d="M 146.5,283.5 C 145.149,275.469 144.149,267.302 143.5,259C 146.367,256.4 146.201,255.234 143,255.5C 143.139,263.565 142.305,271.232 140.5,278.5C 139.833,278.5 139.5,278.833 139.5,279.5C 139.095,280.55 138.429,280.55 137.5,279.5C 136.488,281.837 136.655,284.17 138,286.5C 138.333,286.167 138.667,285.833 139,285.5C 140.193,287.605 141.86,289.272 144,290.5C 144.671,289.748 145.504,289.414 146.5,289.5C 144.797,291.141 142.63,292.141 140,292.5C 137.275,289.737 135.275,286.403 134,282.5C 133.667,282.833 133.333,283.167 133,283.5C 132.727,281.671 131.893,280.171 130.5,279C 130.833,278.667 131.167,278.333 131.5,278C 130.5,277.667 129.5,277.333 128.5,277C 128.728,276.601 129.062,276.435 129.5,276.5C 130.222,276.082 130.722,275.416 131,274.5C 132,275.833 133,277.167 134,278.5C 134.934,277.142 135.768,275.808 136.5,274.5C 137.966,273.653 138.8,272.32 139,270.5C 139.333,272.833 139.667,275.167 140,277.5C 140.333,268.833 140.667,260.167 141,251.5C 142.333,252.833 143.667,252.833 145,251.5C 146.475,262.003 146.975,272.67 146.5,283.5 Z"/></g>
<g><path style="opacity:0.004" fill="#000000" d="M 372.5,274.5 C 373.833,275.167 373.833,275.167 372.5,274.5 Z"/></g>
<g><path style="opacity:0.004" fill="#000000" d="M 147.5,275.5 C 148.833,276.167 148.833,276.167 147.5,275.5 Z"/></g>
<g><path style="opacity:0.008" fill="#000000" d="M 338.5,275.5 C 339.833,276.167 339.833,276.167 338.5,275.5 Z"/></g>
<g><path style="opacity:0.004" fill="#0b1a02" d="M 161.5,275.5 C 162.525,275.897 162.692,276.563 162,277.5C 161.536,276.906 161.369,276.239 161.5,275.5 Z"/></g>
<g><path style="opacity:0.006" fill="#000000" d="M 307.5,278.5 C 307.369,277.761 307.536,277.094 308,276.5C 308.692,277.437 308.525,278.103 307.5,278.5 Z"/></g>
<g><path style="opacity:0.01" fill="#161b14" d="M 310.5,274.5 C 311.598,275.601 311.765,276.934 311,278.5C 310.51,277.207 310.343,275.873 310.5,274.5 Z"/></g>
<g><path style="opacity:0.039" fill="#1a3332" d="M 327.5,276.5 C 327.833,276.5 328.167,276.5 328.5,276.5C 328.315,277.17 327.981,277.17 327.5,276.5 Z"/></g>
<g><path style="opacity:1" fill="#073223" d="M 146.5,283.5 C 146.5,285.5 146.5,287.5 146.5,289.5C 145.504,289.414 144.671,289.748 144,290.5C 141.86,289.272 140.193,287.605 139,285.5C 138.667,285.833 138.333,286.167 138,286.5C 136.655,284.17 136.488,281.837 137.5,279.5C 138.429,280.55 139.095,280.55 139.5,279.5C 140.167,279.5 140.5,279.167 140.5,278.5C 142.305,271.232 143.139,263.565 143,255.5C 146.201,255.234 146.367,256.4 143.5,259C 144.149,267.302 145.149,275.469 146.5,283.5 Z"/></g>
<g><path style="opacity:0.008" fill="#000000" d="M 261.5,278.5 C 262.525,278.897 262.692,279.563 262,280.5C 261.536,279.906 261.369,279.239 261.5,278.5 Z"/></g>
<g><path style="opacity:0.02" fill="#323332" d="M 340.5,278.5 C 341.833,279.167 341.833,279.167 340.5,278.5 Z"/></g>
<g><path style="opacity:1" fill="#072b1c" d="M 359.5,266.5 C 362.167,264.5 364.5,262.167 366.5,259.5C 369.551,256.445 372.884,253.779 376.5,251.5C 378.34,251.273 380.34,251.773 382.5,253C 381.619,253.708 380.953,254.542 380.5,255.5C 379.167,255.833 379.167,256.167 380.5,256.5C 376.721,259.711 373.388,262.711 370.5,265.5C 366.992,266.985 366.658,268.985 369.5,271.5C 370.026,273.23 371.026,274.564 372.5,275.5C 375.535,280.77 378.869,285.104 382.5,288.5C 381.167,288.833 381.167,289.167 382.5,289.5C 384.628,290.281 384.795,291.281 383,292.5C 380.667,291.167 378.333,291.167 376,292.5C 375,291.167 374,289.833 373,288.5C 372.586,288.957 372.086,289.291 371.5,289.5C 370.904,288.284 370.737,286.951 371,285.5C 370.667,285.833 370.333,286.167 370,286.5C 368.783,282.634 366.783,279.301 364,276.5C 362.676,277.88 361.343,278.214 360,277.5C 357.801,281.767 356.801,286.1 357,290.5C 354.959,291.423 352.792,291.756 350.5,291.5C 350.5,278.5 350.5,265.5 350.5,252.5C 352.674,252.08 354.674,252.08 356.5,252.5C 357.799,255.699 357.799,258.865 356.5,262C 358.891,263.309 358.891,264.309 356.5,265C 357.047,265.925 357.713,266.758 358.5,267.5C 359.107,267.376 359.44,267.043 359.5,266.5 Z"/></g>
<g><path style="opacity:0.035" fill="#1b1c1b" d="M 363.5,278.5 C 364.833,279.167 364.833,279.167 363.5,278.5 Z"/></g>
<g><path style="opacity:0.024" fill="#292a29" d="M 359.5,266.5 C 358.833,265.167 358.833,265.167 359.5,266.5 Z"/></g>
<g><path style="opacity:0.004" fill="#000000" d="M 361.5,261.5 C 362.833,262.167 362.833,262.167 361.5,261.5 Z"/></g>
<g><path style="opacity:0.004" fill="#000000" d="M 366.5,259.5 C 365.833,258.167 365.833,258.167 366.5,259.5 Z"/></g>
<g><path style="opacity:0.004" fill="#000000" d="M 348.5,279.5 C 349.833,280.167 349.833,280.167 348.5,279.5 Z"/></g>
<g><path style="opacity:1" fill="#063122" d="M 166.5,258.5 C 164.265,258.205 162.265,258.539 160.5,259.5C 159.192,263.019 159.192,266.685 160.5,270.5C 166.354,270.28 172.354,270.613 178.5,271.5C 173.282,272.189 168.116,272.856 163,273.5C 161.413,272.273 160.079,272.606 159,274.5C 158.333,278.167 158.333,281.833 159,285.5C 161.605,286.814 164.105,286.814 166.5,285.5C 169.167,285.5 171.833,285.5 174.5,285.5C 177.212,286.359 179.878,287.525 182.5,289C 172.839,289.5 163.172,289.666 153.5,289.5C 153.5,283.167 153.5,276.833 153.5,270.5C 156.472,265.992 156.805,261.325 154.5,256.5C 154.977,255.522 155.643,254.689 156.5,254C 163.753,253.592 170.42,253.425 176.5,253.5C 179.837,254.109 180.17,255.276 177.5,257C 173.644,257.177 169.977,257.677 166.5,258.5 Z"/></g>
<g><path style="opacity:0.008" fill="#000000" d="M 161.5,281.5 C 162.833,282.167 162.833,282.167 161.5,281.5 Z"/></g>
<g><path style="opacity:0.02" fill="#003332" d="M 343.5,281.5 C 344.833,282.167 344.833,282.167 343.5,281.5 Z"/></g>
<g><path style="opacity:0.012" fill="#005554" d="M 348.5,281.5 C 349.833,282.167 349.833,282.167 348.5,281.5 Z"/></g>
<g><path style="opacity:0.92" fill="#072c1e" d="M 228.5,269.5 C 228.998,272.487 229.498,275.487 230,278.5C 232.8,275.946 233.634,272.946 232.5,269.5C 234.813,270.392 235.147,269.558 233.5,267C 236.076,263.792 237.076,260.292 236.5,256.5C 236.846,255.304 237.346,255.304 238,256.5C 238.49,255.207 238.657,253.873 238.5,252.5C 241.137,251.768 243.637,251.768 246,252.5C 246.423,255.133 247.59,257.299 249.5,259C 249.043,259.414 248.709,259.914 248.5,260.5C 249.028,262.336 249.694,264.003 250.5,265.5C 250.263,266.791 250.596,267.791 251.5,268.5C 251.275,270.716 252.108,272.383 254,273.5C 254.192,271.423 254.692,269.423 255.5,267.5C 257.529,268.629 257.863,268.129 256.5,266C 257.428,265.612 258.095,264.945 258.5,264C 258.361,261.528 258.361,259.362 258.5,257.5C 259.752,255.999 260.752,254.332 261.5,252.5C 262.905,252.24 264.238,251.907 265.5,251.5C 266.695,251.866 267.361,252.699 267.5,254C 266.392,255.677 266.392,257.177 267.5,258.5C 267.607,260.379 267.107,260.712 266,259.5C 265.405,260.899 265.572,262.232 266.5,263.5C 264.027,265.098 264.027,266.598 266.5,268C 265.285,270.096 264.451,269.929 264,267.5C 262.89,269.397 262.724,271.23 263.5,273C 261.408,273.953 261.075,275.286 262.5,277C 260.864,278.434 259.864,280.267 259.5,282.5C 260.478,283.801 260.145,284.968 258.5,286C 259.187,287.162 259.353,288.328 259,289.5C 258.101,291.327 256.767,292.66 255,293.5C 253.278,293.389 253.112,292.889 254.5,292C 253.207,291.51 251.873,291.343 250.5,291.5C 249.664,287.677 248.664,284.011 247.5,280.5C 245.725,278.365 245.058,276.031 245.5,273.5C 244.313,274.653 243.313,274.653 242.5,273.5C 243.791,272.458 243.791,271.292 242.5,270C 244.495,269.076 244.828,267.91 243.5,266.5C 243.719,265.325 243.386,264.325 242.5,263.5C 241.913,264.233 241.913,265.233 242.5,266.5C 241.761,266.369 241.094,266.536 240.5,267C 241.598,267.77 241.598,268.603 240.5,269.5C 239.314,270.705 239.314,272.039 240.5,273.5C 238.067,274.548 238.067,275.214 240.5,275.5C 240.646,277.942 239.813,278.609 238,277.5C 236.69,281.07 235.857,284.737 235.5,288.5C 234.71,289.609 234.21,290.942 234,292.5C 231.868,291.22 229.702,291.22 227.5,292.5C 227.407,291.528 227.074,290.528 226.5,289.5C 225.496,284.484 224.33,279.484 223,274.5C 222.346,275.696 221.846,275.696 221.5,274.5C 221.931,273.707 222.265,272.873 222.5,272C 222.108,270.989 221.441,270.489 220.5,270.5C 220.833,269.833 221.167,269.167 221.5,268.5C 220.358,265.601 219.692,262.601 219.5,259.5C 221.94,256.922 221.606,255.588 218.5,255.5C 218.167,255.5 217.833,255.5 217.5,255.5C 216.922,254.453 216.256,254.62 215.5,256C 211.833,256.333 208.167,256.667 204.5,257C 204,257.5 203.5,258 203,258.5C 203.498,268.474 203.498,278.474 203,288.5C 202.333,289.833 201.667,289.833 201,288.5C 200.87,278.118 200.204,267.784 199,257.5C 198.667,256.833 198.333,256.167 198,255.5C 197.309,257.891 196.309,257.891 195,255.5C 193.186,256.76 191.353,256.76 189.5,255.5C 195.726,254.597 201.892,253.597 208,252.5C 208.333,253.167 208.667,253.833 209,254.5C 210.948,253.891 212.782,253.224 214.5,252.5C 216.543,252.492 218.71,251.826 221,250.5C 221.71,251.973 222.876,252.64 224.5,252.5C 224.998,255.487 225.498,258.487 226,261.5C 227.065,259.604 227.898,259.437 228.5,261C 226.085,262.86 226.085,264.526 228.5,266C 227.209,267.292 227.209,268.458 228.5,269.5 Z M 240.5,273.5 C 240.5,274.167 240.5,274.833 240.5,275.5C 238.067,275.214 238.067,274.548 240.5,273.5 Z M 240.5,269.5 C 240.328,270.492 240.662,271.158 241.5,271.5C 241.672,272.492 241.338,273.158 240.5,273.5C 239.314,272.039 239.314,270.705 240.5,269.5 Z M 242.5,266.5 C 242.833,269.167 243.167,269.167 243.5,266.5C 244.828,267.91 244.495,269.076 242.5,270C 243.791,271.292 243.791,272.458 242.5,273.5C 242.672,272.508 242.338,271.842 241.5,271.5C 241.672,270.508 241.338,269.842 240.5,269.5C 241.598,268.603 241.598,267.77 240.5,267C 241.094,266.536 241.761,266.369 242.5,266.5 Z M 243.5,266.5 C 243.167,266.5 242.833,266.5 242.5,266.5C 241.913,265.233 241.913,264.233 242.5,263.5C 243.386,264.325 243.719,265.325 243.5,266.5 Z"/></g>
<g><path style="opacity:0.012" fill="#071615" d="M 247.5,280.5 C 247.631,281.239 247.464,281.906 247,282.5C 246.308,281.563 246.475,280.897 247.5,280.5 Z"/></g>
<g><path style="opacity:0.004" fill="#000000" d="M 238.5,279.5 C 239.833,280.167 239.833,280.167 238.5,279.5 Z"/></g>
<g><path style="opacity:0.004" fill="#000000" d="M 230.5,274.5 C 231.833,275.167 231.833,275.167 230.5,274.5 Z"/></g>
<g><path style="opacity:0.004" fill="#000000" d="M 230.5,271.5 C 231.525,271.897 231.692,272.563 231,273.5C 230.536,272.906 230.369,272.239 230.5,271.5 Z"/></g>
<g><path style="opacity:0.012" fill="#0f1f06" d="M 252.5,268.5 C 253.525,268.897 253.692,269.563 253,270.5C 252.536,269.906 252.369,269.239 252.5,268.5 Z"/></g>
<g><path style="opacity:0.02" fill="#2c3e3e" d="M 232.5,269.5 C 231.475,269.103 231.308,268.437 232,267.5C 232.464,268.094 232.631,268.761 232.5,269.5 Z"/></g>
<g><path style="opacity:0.027" fill="#1d2928" d="M 252.5,268.5 C 252.167,268.5 251.833,268.5 251.5,268.5C 251.833,265.833 252.167,265.833 252.5,268.5 Z"/></g>
<g><path style="opacity:0.008" fill="#000000" d="M 228.5,269.5 C 228.369,268.761 228.536,268.094 229,267.5C 229.692,268.437 229.525,269.103 228.5,269.5 Z"/></g>
<g><path style="opacity:0.027" fill="#041a1a" d="M 250.5,265.5 C 250.369,264.761 250.536,264.094 251,263.5C 251.692,264.437 251.525,265.103 250.5,265.5 Z"/></g>
<g><path style="opacity:0.008" fill="#051111" d="M 205.5,259.5 C 208.001,259.511 208.168,260.178 206,261.5C 205.536,260.906 205.369,260.239 205.5,259.5 Z"/></g>
<g><path style="opacity:0.004" fill="#000000" d="M 248.5,256.5 C 249.833,257.167 249.833,257.167 248.5,256.5 Z"/></g>
<g><path style="opacity:0.008" fill="#000000" d="M 180.5,283.5 C 181.833,284.167 181.833,284.167 180.5,283.5 Z"/></g>
<g><path style="opacity:0.006" fill="#000000" d="M 348.5,286.5 C 347.475,286.103 347.308,285.437 348,284.5C 348.464,285.094 348.631,285.761 348.5,286.5 Z"/></g>
<g><path style="opacity:0.031" fill="#052d1e" d="M 344.5,285.5 C 344.56,284.957 344.893,284.624 345.5,284.5C 346.386,285.325 346.719,286.325 346.5,287.5C 346.167,287.5 345.833,287.5 345.5,287.5C 345.672,286.508 345.338,285.842 344.5,285.5 Z"/></g>
<g><path style="opacity:0.008" fill="#000000" d="M 147.5,286.5 C 148.833,287.167 148.833,287.167 147.5,286.5 Z"/></g>
<g><path style="opacity:0.012" fill="#005500" d="M 348.5,286.5 C 349.833,287.167 349.833,287.167 348.5,286.5 Z"/></g>
<g><path style="opacity:0.008" fill="#000000" d="M 196.5,287.5 C 197.833,288.167 197.833,288.167 196.5,287.5 Z"/></g>
<g><path style="opacity:0.02" fill="#003332" d="M 346.5,287.5 C 347.833,288.167 347.833,288.167 346.5,287.5 Z"/></g>
<g><path style="opacity:0.01" fill="#000000" d="M 235.5,288.5 C 236.525,288.897 236.692,289.563 236,290.5C 235.536,289.906 235.369,289.239 235.5,288.5 Z"/></g>
<g><path style="opacity:0.018" fill="#000000" d="M 382.5,289.5 C 382.5,289.167 382.5,288.833 382.5,288.5C 385.167,288.833 385.167,289.167 382.5,289.5 Z"/></g>
<g><path style="opacity:0.832" fill="#041f15" d="M 174.5,285.5 C 177.5,285.5 180.5,285.5 183.5,285.5C 183.5,287.5 183.5,289.5 183.5,291.5C 173.111,292.141 163.111,291.474 153.5,289.5C 163.172,289.666 172.839,289.5 182.5,289C 179.878,287.525 177.212,286.359 174.5,285.5 Z"/></g>
<g><path style="opacity:0.004" fill="#000000" d="M 226.5,289.5 C 225.833,290.167 225.833,290.167 226.5,289.5 Z"/></g>
<g><path style="opacity:0.004" fill="#000000" d="M 183.5,291.5 C 184.833,292.167 184.833,292.167 183.5,291.5 Z"/></g>
<g><path style="opacity:0.004" fill="#000000" d="M 204.5,291.5 C 205.833,292.167 205.833,292.167 204.5,291.5 Z"/></g>
<g><path style="opacity:0.008" fill="#000000" d="M 348.5,291.5 C 349.833,292.167 349.833,292.167 348.5,291.5 Z"/></g>
<g><path style="opacity:0.008" fill="#000000" d="M 118.5,292.5 C 119.833,293.167 119.833,293.167 118.5,292.5 Z"/></g>
<g><path style="opacity:0.012" fill="#000000" d="M 180.5,292.5 C 181.833,293.167 181.833,293.167 180.5,292.5 Z"/></g>
<g><path style="opacity:0.004" fill="#000000" d="M 183.5,292.5 C 182.833,293.167 182.833,293.167 183.5,292.5 Z"/></g>
<g><path style="opacity:0.008" fill="#000000" d="M 229.5,293.5 C 230.251,292.427 231.251,292.26 232.5,293C 231.552,293.483 230.552,293.649 229.5,293.5 Z"/></g>
<g><path style="opacity:0.006" fill="#000000" d="M 315.5,293.5 C 315.897,292.475 316.563,292.308 317.5,293C 316.906,293.464 316.239,293.631 315.5,293.5 Z"/></g>
<g><path style="opacity:0.008" fill="#000000" d="M 341.5,292.5 C 342.833,293.167 342.833,293.167 341.5,292.5 Z"/></g>
<g><path style="opacity:0.016" fill="#000000" d="M 343.5,292.5 C 344.833,293.167 344.833,293.167 343.5,292.5 Z"/></g>
<g><path style="opacity:0.004" fill="#000000" d="M 352.5,292.5 C 353.833,293.167 353.833,293.167 352.5,292.5 Z"/></g>
<g><path style="opacity:0.008" fill="#000000" d="M 354.5,292.5 C 355.833,293.167 355.833,293.167 354.5,292.5 Z"/></g>
<g><path style="opacity:0.006" fill="#000000" d="M 378.5,293.5 C 378.897,292.475 379.563,292.308 380.5,293C 379.906,293.464 379.239,293.631 378.5,293.5 Z"/></g>
</svg>
